<svg xmlns="http://www.w3.org/2000/svg" width="43" height="42" viewBox="0 0 43 42" style="height:801.75px"><defs><filter id="a" width="158.5%" height="160%" x="-29.3%" y="-30%" filterUnits="objectBoundingBox"><feOffset dy="2" in="SourceAlpha" result="shadowOffsetOuter1"/><feGaussianBlur in="shadowOffsetOuter1" result="shadowBlurOuter1" stdDeviation="2"/><feColorMatrix in="shadowBlurOuter1" result="shadowMatrixOuter1" values="0 0 0 0 0 0 0 0 0 0 0 0 0 0 0 0 0 0 0.3 0"/><feMerge><feMergeNode in="shadowMatrixOuter1"/><feMergeNode in="SourceGraphic"/></feMerge></filter></defs><g fill="none" filter="url(#a)" transform="translate(1 1)"><path fill="#FBBB00" d="M8.441 23.581L7.115 28.98l-4.845.112C.82 26.16 0 22.81 0 19.248c0-3.444.768-6.691 2.13-9.551l4.315.863 1.89 4.676a13.363 13.363 0 0 0-.612 4.012c0 1.525.254 2.986.718 4.333z"/><path fill="#518EF8" d="M40.634 15.758c.24 1.213.366 2.467.366 3.748 0 1.436-.158 2.837-.458 4.189-1.02 4.599-3.687 8.615-7.38 11.457l-.002-.002-5.98-.292-.847-5.057c2.451-1.376 4.366-3.529 5.375-6.106H20.5v-7.937h20.134z"/><path fill="#28B446" d="M32.558 35.615v.001A19.981 19.981 0 0 1 20.035 40 20.017 20.017 0 0 1 2.412 29.524l6.483-5.282a11.893 11.893 0 0 0 11.139 7.683c2.192 0 4.245-.59 6.007-1.62l6.517 5.31z"/><path fill="#F14336" d="M32.559 4.496l-6.398 5.18a11.77 11.77 0 0 0-6.208-1.755c-5.148 0-9.522 3.277-11.106 7.837l-6.434-5.21h-.001A19.775 19.775 0 0 1 19.952 0 19.8 19.8 0 0 1 32.56 4.496z"/></g></svg>